# xmcd
#
# Track frame offsets:
#	150
#	12563
#	28012
#	45066
#	59612
#	76762
#	92785
#	107406
#	121233
#	139666
#	154462
#	169358
#	186207
#	200097
#	219752
#	234913
#	235785
#	236453
#	237091
#	237742
#	238485
#	239191
#	239877
#	240557
#
# Disc length: 3215 seconds
#
# Revision: 1
# Processed by: cddbd v1.5.2PL0 Copyright (c) Steve Scherf et al.
# Submitted via: audiograbber 1.83.01
#
DISCID=4f0c8d18
DTITLE=Various Artist - CDX Volume 659 (February 19, 2018)
DYEAR=2018
DGENRE=Country
TTITLE0=Sir Rosevelt - Something 'Bout You
TTITLE1=Hillbilly Vegas - Field Fulla Hillbillies
TTITLE2=Curtis Braly - Hate Me 
TTITLE3=Rod Black - Keepin' On
TTITLE4=Donovan Lee - Know You'll Never Change
TTITLE5=Tenille Arts - Moment of Weakness
TTITLE6=Dave McElroy - Nowhere With You
TTITLE7=Jagertown - Rearview
TTITLE8=Brailey Lenderman - Remember All The Nights
TTITLE9=Aaron Watson - Run Wild Horses
TTITLE10=Ricky Cook - Thanks A Lot Loretta
TTITLE11=Gil Prather - Don't Fall In Love With A Cowboy
TTITLE12=Joe Denim (featuring Rachel Holder) - Together We're A Ten
TTITLE13=Benny Havens Band - When America Dreams 
TTITLE14=Risa Binder - You Came Along
TTITLE15=Kyle Daigle - Radio Liner - My New Single
TTITLE16=Kyle Daigle - Radio Liner - Today's Best Country
TTITLE17=Kyle Daigle - Radio Liner - Kickin' Country
TTITLE18=Kyle Daigle - Radio Liner - Hometown Country
TTITLE19=Kyle Daigle - Radio Liner - Super Country
TTITLE20=Kyle Daigle - Radio Liner - Today's Hot Country
TTITLE21=Kyle Daigle - Radio Liner - Best In Today's Country
TTITLE22=Kyle Daigle - Radio Liner - More of the Country You Love
TTITLE23=Kyle Daigle - Radio Liner - Howlin' Country
EXTD=
EXTT0=
EXTT1=
EXTT2=
EXTT3=
EXTT4=
EXTT5=
EXTT6=
EXTT7=
EXTT8=
EXTT9=
EXTT10=
EXTT11=
EXTT12=
EXTT13=
EXTT14=
EXTT15=
EXTT16=
EXTT17=
EXTT18=
EXTT19=
EXTT20=
EXTT21=
EXTT22=
EXTT23=
PLAYORDER=
